<?xml version="1.0" encoding="utf-8"?>
<!-- Generator: Adobe Illustrator 25.0.1, SVG Export Plug-In . SVG Version: 6.00 Build 0)  -->
<svg version="1.1" id="Layer_1" xmlns="http://www.w3.org/2000/svg" xmlns:xlink="http://www.w3.org/1999/xlink" x="0px" y="0px"
	 viewBox="0 0 150 80" style="enable-background:new 0 0 150 80;" xml:space="preserve">
<style type="text/css">
	.st0{fill:#FFFFFF;}
</style>
<g>
	<path class="st0" d="M37.14,40h-2.92v2.92H19.64v11.67H7.97V25.42h26.25v2.92h2.92V40z M25.47,37.08v-5.83h-5.83v5.83H25.47z"/>
	<path class="st0" d="M72.14,54.58H60.47V42.92h-5.83v11.67H42.97V28.33h2.92v-2.92h23.33v2.92h2.92V54.58z M60.47,37.08v-5.83
		h-5.83v5.83H60.47z"/>
	<path class="st0" d="M107.14,31.25h-8.75v23.33H86.72V31.25h-8.75v-5.83h29.17V31.25z"/>
	<path class="st0" d="M142.03,54.58h-11.67V42.92h-5.83v11.67h-11.67V25.42h11.67v11.67h5.83V25.42h11.67V54.58z"/>
</g>
</svg>
