<?xml version="1.0" encoding="utf-8"?>
<!-- Generator: Adobe Illustrator 25.0.1, SVG Export Plug-In . SVG Version: 6.00 Build 0)  -->
<svg version="1.1" id="Layer_1" xmlns="http://www.w3.org/2000/svg" xmlns:xlink="http://www.w3.org/1999/xlink" x="0px" y="0px"
	 viewBox="0 0 364 364" style="enable-background:new 0 0 364 364;" xml:space="preserve">
<style type="text/css">
	.st0{fill:#FFFFFF;}
</style>
<g>
	<path class="st0" d="M169.5,113.23l-12.5,3.12v12.5l-62.5,15.58v50l-50,12.47v-125L157,53.85v12.5l12.5-3.12V113.23z M119.5,113.2
		v-25l-25,6.23v25L119.5,113.2z"/>
	<path class="st0" d="M319.5,138.33l-50,12.47v-50l-25,6.23v50l-50,12.47V57l12.5-3.12v-12.5l100-24.93v12.5l12.5-3.12V138.33z
		 M269.5,75.8v-25l-25,6.23v25L269.5,75.8z"/>
	<path class="st0" d="M169.5,225.73l-37.5,9.35v100l-50,12.47v-100l-37.5,9.35v-25l125-31.17V225.73z"/>
	<path class="st0" d="M319.5,288.33l-50,12.47v-50l-25,6.23v50l-50,12.47v-125l50-12.47v50l25-6.23v-50l50-12.47V288.33z"/>
</g>
</svg>
