<?xml version="1.0" encoding="utf-8"?>
<!-- Generator: Adobe Illustrator 25.0.1, SVG Export Plug-In . SVG Version: 6.00 Build 0)  -->
<svg version="1.1" id="Capa_1" xmlns="http://www.w3.org/2000/svg" xmlns:xlink="http://www.w3.org/1999/xlink" x="0px" y="0px"
	 viewBox="0 0 460.8 460.8" style="enable-background:new 0 0 460.8 460.8;" xml:space="preserve">
<style type="text/css">
	.st0{fill:#FFFFFF;}
</style>
<g>
	<g>
		<path class="st0" d="M230.4,0c-65.8,0-119.6,53.8-119.6,119.6s53.8,119.6,119.6,119.6s119.6-53.8,119.6-119.6S296.3,0,230.4,0z"/>
	</g>
</g>
<g>
	<g>
		<path class="st0" d="M435.8,334.9c-3.1-7.8-7.3-15.2-12-21.9c-24-35.5-61.1-59-102.9-64.8c-5.2-0.5-11,0.5-15.2,3.7
			c-21.9,16.2-48.1,24.6-75.2,24.6s-53.3-8.4-75.2-24.6c-4.2-3.1-9.9-4.7-15.2-3.7c-41.8,5.7-79.4,29.3-102.9,64.8
			c-4.7,6.8-8.9,14.6-12,21.9c-1.6,3.1-1,6.8,0.5,9.9c4.2,7.3,9.4,14.6,14.1,20.9c7.3,9.9,15.2,18.8,24,27.2
			c7.3,7.3,15.7,14.1,24,20.9c41.3,30.8,90.9,47,142.1,47s100.8-16.2,142.1-47c8.4-6.3,16.7-13.6,24-20.9c8.4-8.4,16.7-17.2,24-27.2
			c5.2-6.8,9.9-13.6,14.1-20.9C436.8,341.7,437.3,338,435.8,334.9z"/>
	</g>
</g>
</svg>
